<svg width="137" height="14" viewBox="0 0 137 14" fill="none" xmlns="http://www.w3.org/2000/svg">
<path d="M5.706 0.256H8.01L9.468 4.486L10.944 0.256H13.23L11.034 6.07L12.654 10.138L16.272 0.219999H18.972L13.86 13H11.718L9.468 7.636L7.236 13H5.094L0 0.219999H2.664L6.3 10.138L7.884 6.07L5.706 0.256ZM22.2812 13V0.219999H24.7652V13H22.2812ZM29.4316 13V0.219999H31.9156V10.822H38.4316V13H29.4316ZM41.9433 13V0.219999H44.4273V10.822H50.9433V13H41.9433ZM54.455 13V0.219999H56.939V13H54.455ZM65.0794 0.219999H67.5994L72.2974 13H69.7414L68.5534 9.814H64.0894L62.9194 13H60.3634L65.0794 0.219999ZM68.1034 8.068L66.3394 2.794L64.5034 8.068H68.1034ZM86.1212 13V4.612L82.8452 10.858H81.4592L78.1832 4.612V13H75.6992V0.219999H78.3632L82.1432 7.492L85.9592 0.219999H88.6052V13H86.1212Z" fill="#8671FC"/>
<path d="M92.9854 13V10.408H94.9654V13H92.9854ZM106.93 3.568C106.846 3.484 106.69 3.37 106.462 3.226C106.246 3.082 105.976 2.944 105.652 2.812C105.34 2.68 104.998 2.566 104.626 2.47C104.254 2.362 103.876 2.308 103.492 2.308C102.82 2.308 102.31 2.434 101.962 2.686C101.626 2.938 101.458 3.292 101.458 3.748C101.458 4.096 101.566 4.372 101.782 4.576C101.998 4.78 102.322 4.954 102.754 5.098C103.186 5.242 103.726 5.398 104.374 5.566C105.214 5.77 105.94 6.022 106.552 6.322C107.176 6.61 107.65 6.994 107.974 7.474C108.31 7.942 108.478 8.566 108.478 9.346C108.478 10.03 108.352 10.618 108.1 11.11C107.848 11.59 107.5 11.98 107.056 12.28C106.612 12.58 106.108 12.802 105.544 12.946C104.98 13.078 104.38 13.144 103.744 13.144C103.108 13.144 102.472 13.078 101.836 12.946C101.2 12.814 100.588 12.628 100 12.388C99.4124 12.136 98.8724 11.836 98.3804 11.488L99.4784 9.346C99.5864 9.454 99.7784 9.598 100.054 9.778C100.33 9.946 100.666 10.12 101.062 10.3C101.458 10.468 101.89 10.612 102.358 10.732C102.826 10.852 103.3 10.912 103.78 10.912C104.452 10.912 104.962 10.798 105.31 10.57C105.658 10.342 105.832 10.018 105.832 9.598C105.832 9.214 105.694 8.914 105.418 8.698C105.142 8.482 104.758 8.296 104.266 8.14C103.774 7.972 103.192 7.792 102.52 7.6C101.716 7.372 101.044 7.12 100.504 6.844C99.9644 6.556 99.5624 6.196 99.2984 5.764C99.0344 5.332 98.9024 4.792 98.9024 4.144C98.9024 3.268 99.1064 2.536 99.5144 1.948C99.9344 1.348 100.498 0.898 101.206 0.598C101.914 0.286 102.7 0.129999 103.564 0.129999C104.164 0.129999 104.728 0.195999 105.256 0.327999C105.796 0.459999 106.3 0.634 106.768 0.85C107.236 1.066 107.656 1.3 108.028 1.552L106.93 3.568ZM121.913 2.398H117.827V13H115.361V2.398H111.275V0.219999H121.913V2.398ZM125.5 13V0.219999H130.144C131.536 0.219999 132.7 0.507999 133.636 1.084C134.572 1.648 135.274 2.416 135.742 3.388C136.21 4.348 136.444 5.416 136.444 6.592C136.444 7.888 136.186 9.016 135.67 9.976C135.154 10.936 134.422 11.68 133.474 12.208C132.538 12.736 131.428 13 130.144 13H125.5ZM133.942 6.592C133.942 5.764 133.792 5.038 133.492 4.414C133.192 3.778 132.76 3.286 132.196 2.938C131.632 2.578 130.948 2.398 130.144 2.398H127.984V10.822H130.144C130.96 10.822 131.65 10.642 132.214 10.282C132.778 9.91 133.204 9.406 133.492 8.77C133.792 8.122 133.942 7.396 133.942 6.592Z" fill="#F05D7B"/>
</svg>
